# xmcd
#
# Track frame offsets:
#   150
#   12222
#   25052
#   36077
#   46787
#   58360
#   66872
#   75360
#   86162
#   98322
#   111157
#   121192
#   130772
#   139980
#   152037
#
# Disc length: 2237 seconds
#
# Submitted via: SoundJam 2.0
#
# Revision: 0
# Processed by: cddbd v1.4PL0 Copyright (c) Steve Scherf et al.
#
DISCID=b808bb0f
DTITLE=Various Artist - The Definitive Blugrass Collection, Disc 1 of 2
DYEAR=1900
DGENRE=
TTITLE0=The Osborne Brothers - Rocky Top
TTITLE1=Mac Wiseman - I Wonder How The Old Folks Are At Home
TTITLE2=Jim and Jesse - Are You Missing Me?
TTITLE3=Lester Flatt and The Nashville Grass - Roll In My Sweet Baby's Arms
TTITLE4=Don Reno - Feudin' Banjos
TTITLE5=Carl Story - Somebody Touched Me
TTITLE6=Benny Martin - Blue Moon of Kentucky
TTITLE7=Grandpa Jones - Eight More Miles to Louisville
TTITLE8=Bluegrass Cardinals - I Wonder How You Are Tonight
TTITLE9=Benny Martin - Wabash Cannonball
TTITLE10=Don Reno - I Know You're Married (But I Love You Still)
TTITLE11=Josh Graves - Earl's Breakdown
TTITLE12=Carl Story - True Life Blues
TTITLE13=Jim and Jesse - Swing Low, Sweet Chariot
TTITLE14=Donna Stoneman and The Stonemans - Orange Blossom Special
EXTD=
EXTT0=
EXTT1=
EXTT2=
EXTT3=
EXTT4=
EXTT5=
EXTT6=
EXTT7=
EXTT8=
EXTT9=
EXTT10=
EXTT11=
EXTT12=
EXTT13=
EXTT14=
PLAYORDER=
